<svg width="19" height="20" viewBox="0 0 19 20" fill="none" xmlns="http://www.w3.org/2000/svg">
<path d="M18.1143 3.53651L15.6586 1.11671C15.4854 0.945104 15.2795 0.808945 15.0528 0.716057C14.826 0.623169 14.5829 0.575381 14.3374 0.57544C13.8371 0.57544 13.3667 0.76875 13.0139 1.11671L10.3714 3.723C10.1975 3.89385 10.0594 4.09693 9.96524 4.32056C9.87106 4.5442 9.82261 4.78398 9.82267 5.02614C9.82267 5.51965 10.0187 5.9836 10.3714 6.33156L12.3037 8.23737C11.8514 9.22067 11.2226 10.1152 10.4475 10.8778C9.67446 11.6441 8.7676 12.2665 7.77052 12.7154L5.83826 10.8095C5.66504 10.6379 5.45914 10.5018 5.23241 10.4089C5.00567 10.316 4.76256 10.2682 4.51705 10.2683C4.01669 10.2683 3.54631 10.4616 3.19352 10.8095L0.548779 13.4136C0.374579 13.5847 0.236414 13.7882 0.142233 14.0122C0.0480517 14.2363 -0.000285731 14.4764 1.27057e-06 14.719C1.27057e-06 15.2125 0.195994 15.6764 0.548779 16.0244L2.99984 18.4419C3.56245 18.9991 4.3395 19.3152 5.1373 19.3152C5.30563 19.3152 5.46703 19.3016 5.62613 19.2743C8.73434 18.7694 11.8172 17.1388 14.3051 14.6871C16.7908 12.2378 18.4417 9.19938 18.9605 6.1246C19.1173 5.18534 18.8014 4.21878 18.1143 3.53651V3.53651Z" fill="white"/>
</svg>
