<svg width="14" height="15" viewBox="0 0 14 15" fill="none" xmlns="http://www.w3.org/2000/svg">
<path d="M11.6667 0.932129H2.33333C1.01111 0.932129 0 1.94324 0 3.26546V12.5988C0 13.921 1.01111 14.9321 2.33333 14.9321H11.6667C12.9889 14.9321 14 13.921 14 12.5988V3.26546C14 1.94324 12.9889 0.932129 11.6667 0.932129ZM7 5.5988C8.32222 5.5988 9.33333 6.60991 9.33333 7.93213C9.33333 9.25435 8.32222 10.2655 7 10.2655C5.67778 10.2655 4.66667 9.25435 4.66667 7.93213C4.66667 6.60991 5.67778 5.5988 7 5.5988ZM9.95556 4.04324C9.95556 3.4988 10.4222 3.10991 10.8889 3.10991C11.3556 3.10991 11.8222 3.57657 11.8222 4.04324C11.8222 4.50991 11.4333 4.97657 10.8889 4.97657C10.3444 4.97657 9.95556 4.58768 9.95556 4.04324ZM11.6667 13.3766H2.33333C1.86667 13.3766 1.55556 13.0655 1.55556 12.5988V7.93213H3.11111C3.11111 10.1099 4.82222 11.821 7 11.821C9.17778 11.821 10.8889 10.1099 10.8889 7.93213H12.4444V12.5988C12.4444 13.0655 12.1333 13.3766 11.6667 13.3766Z" fill="white"/>
</svg>
