<svg width="9" height="6" viewBox="0 0 9 6" fill="none" xmlns="http://www.w3.org/2000/svg">
<path d="M8.8683 0.651785C8.92783 0.711309 8.95759 0.779762 8.95759 0.857142C8.95759 0.934524 8.92783 1.00298 8.8683 1.0625L4.70759 5.22321C4.64807 5.28274 4.57961 5.3125 4.50223 5.3125C4.42485 5.3125 4.3564 5.28274 4.29688 5.22321L0.136161 1.0625C0.076637 1.00298 0.0468751 0.934524 0.0468751 0.857142C0.0468751 0.779762 0.076637 0.711309 0.136161 0.651785L0.582589 0.205357C0.642113 0.145833 0.710565 0.116071 0.787946 0.116071C0.865327 0.116071 0.93378 0.145833 0.993304 0.205357L4.50223 3.71429L8.01116 0.205357C8.07068 0.145833 8.13914 0.116071 8.21652 0.116071C8.2939 0.116071 8.36235 0.145833 8.42188 0.205357L8.8683 0.651785Z" fill="white"/>
</svg>
