<svg width="178" height="48" viewBox="0 0 178 48" fill="none" xmlns="http://www.w3.org/2000/svg">
<path d="M58.08 21L58.066 15.12L55.182 19.964H54.16L51.29 15.246V21H49.162V11.2H51.038L54.706 17.29L58.318 11.2H60.18L60.208 21H58.08ZM70.6811 19.18V21H63.0931V11.2H70.4991V13.02H65.3471V15.148H69.8971V16.912H65.3471V19.18H70.6811ZM73.0457 11.2H77.4977C78.5617 11.2 79.4997 11.4053 80.3117 11.816C81.133 12.2173 81.7677 12.7867 82.2157 13.524C82.673 14.2613 82.9017 15.12 82.9017 16.1C82.9017 17.08 82.673 17.9387 82.2157 18.676C81.7677 19.4133 81.133 19.9873 80.3117 20.398C79.4997 20.7993 78.5617 21 77.4977 21H73.0457V11.2ZM77.3857 19.138C78.3657 19.138 79.145 18.8673 79.7237 18.326C80.3117 17.7753 80.6057 17.0333 80.6057 16.1C80.6057 15.1667 80.3117 14.4293 79.7237 13.888C79.145 13.3373 78.3657 13.062 77.3857 13.062H75.3137V19.138H77.3857ZM85.1721 11.2H87.4401V21H85.1721V11.2ZM95.0158 21.168C94.0172 21.168 93.1118 20.9533 92.2998 20.524C91.4972 20.0853 90.8625 19.4833 90.3958 18.718C89.9385 17.9433 89.7098 17.0707 89.7098 16.1C89.7098 15.1293 89.9385 14.2613 90.3958 13.496C90.8625 12.7213 91.4972 12.1193 92.2998 11.69C93.1118 11.2513 94.0218 11.032 95.0298 11.032C95.8792 11.032 96.6445 11.1813 97.3258 11.48C98.0165 11.7787 98.5952 12.208 99.0618 12.768L97.6058 14.112C96.9432 13.3467 96.1218 12.964 95.1418 12.964C94.5352 12.964 93.9938 13.0993 93.5178 13.37C93.0418 13.6313 92.6685 14 92.3978 14.476C92.1365 14.952 92.0058 15.4933 92.0058 16.1C92.0058 16.7067 92.1365 17.248 92.3978 17.724C92.6685 18.2 93.0418 18.5733 93.5178 18.844C93.9938 19.1053 94.5352 19.236 95.1418 19.236C96.1218 19.236 96.9432 18.8487 97.6058 18.074L99.0618 19.418C98.5952 19.9873 98.0165 20.4213 97.3258 20.72C96.6352 21.0187 95.8652 21.168 95.0158 21.168ZM107.416 18.9H102.866L101.998 21H99.674L104.042 11.2H106.282L110.664 21H108.284L107.416 18.9ZM106.702 17.178L105.148 13.426L103.594 17.178H106.702ZM112.241 11.2H114.509V19.152H119.423V21H112.241V11.2ZM49.708 28.2H53.586C54.6033 28.2 55.504 28.41 56.288 28.83C57.0813 29.25 57.6973 29.8333 58.136 30.58C58.5747 31.3173 58.794 32.1573 58.794 33.1C58.794 34.0427 58.5747 34.8873 58.136 35.634C57.6973 36.3713 57.0813 36.95 56.288 37.37C55.504 37.79 54.6033 38 53.586 38H49.708V28.2ZM53.53 37.356C54.4353 37.356 55.2333 37.1787 55.924 36.824C56.6147 36.46 57.1467 35.956 57.52 35.312C57.8933 34.668 58.08 33.9307 58.08 33.1C58.08 32.2693 57.8933 31.532 57.52 30.888C57.1467 30.244 56.6147 29.7447 55.924 29.39C55.2333 29.026 54.4353 28.844 53.53 28.844H50.422V37.356H53.53ZM63.5144 30.636C64.4197 30.636 65.1151 30.8693 65.6004 31.336C66.0857 31.7933 66.3284 32.47 66.3284 33.366V38H65.6564V36.698C65.4231 37.1273 65.0824 37.4633 64.6344 37.706C64.1864 37.9393 63.6497 38.056 63.0244 38.056C62.2124 38.056 61.5684 37.8647 61.0924 37.482C60.6257 37.0993 60.3924 36.5953 60.3924 35.97C60.3924 35.3633 60.6071 34.8733 61.0364 34.5C61.4751 34.1173 62.1704 33.926 63.1224 33.926H65.6284V33.338C65.6284 32.6567 65.4417 32.1387 65.0684 31.784C64.7044 31.4293 64.1677 31.252 63.4584 31.252C62.9731 31.252 62.5064 31.336 62.0584 31.504C61.6197 31.672 61.2464 31.896 60.9384 32.176L60.5884 31.672C60.9524 31.3453 61.3911 31.0933 61.9044 30.916C62.4177 30.7293 62.9544 30.636 63.5144 30.636ZM63.1224 37.482C63.7291 37.482 64.2424 37.342 64.6624 37.062C65.0917 36.782 65.4137 36.376 65.6284 35.844V34.472H63.1364C62.4177 34.472 61.8951 34.6027 61.5684 34.864C61.2511 35.1253 61.0924 35.4847 61.0924 35.942C61.0924 36.418 61.2697 36.796 61.6244 37.076C61.9791 37.3467 62.4784 37.482 63.1224 37.482ZM69.8845 32.288C70.1085 31.756 70.4585 31.35 70.9345 31.07C71.4105 30.7807 71.9892 30.636 72.6705 30.636V31.322L72.5025 31.308C71.6905 31.308 71.0558 31.5647 70.5985 32.078C70.1412 32.582 69.9125 33.2867 69.9125 34.192V38H69.2125V30.692H69.8845V32.288ZM80.7934 30.692L77.0414 38.994C76.7614 39.638 76.4347 40.0953 76.0614 40.366C75.6974 40.6367 75.2634 40.772 74.7594 40.772C74.4234 40.772 74.106 40.716 73.8074 40.604C73.518 40.492 73.2707 40.3287 73.0654 40.114L73.4154 39.582C73.7887 39.9647 74.2414 40.156 74.7734 40.156C75.128 40.156 75.4314 40.058 75.6834 39.862C75.9354 39.666 76.1687 39.33 76.3834 38.854L76.7754 37.972L73.4854 30.692H74.2274L77.1534 37.23L80.0794 30.692H80.7934ZM84.5691 30.636C85.4744 30.636 86.1698 30.8693 86.6551 31.336C87.1404 31.7933 87.3831 32.47 87.3831 33.366V38H86.7111V36.698C86.4778 37.1273 86.1371 37.4633 85.6891 37.706C85.2411 37.9393 84.7044 38.056 84.0791 38.056C83.2671 38.056 82.6231 37.8647 82.1471 37.482C81.6804 37.0993 81.4471 36.5953 81.4471 35.97C81.4471 35.3633 81.6618 34.8733 82.0911 34.5C82.5298 34.1173 83.2251 33.926 84.1771 33.926H86.6831V33.338C86.6831 32.6567 86.4964 32.1387 86.1231 31.784C85.7591 31.4293 85.2224 31.252 84.5131 31.252C84.0278 31.252 83.5611 31.336 83.1131 31.504C82.6744 31.672 82.3011 31.896 81.9931 32.176L81.6431 31.672C82.0071 31.3453 82.4458 31.0933 82.9591 30.916C83.4724 30.7293 84.0091 30.636 84.5691 30.636ZM84.1771 37.482C84.7838 37.482 85.2971 37.342 85.7171 37.062C86.1464 36.782 86.4684 36.376 86.6831 35.844V34.472H84.1911C83.4724 34.472 82.9498 34.6027 82.6231 34.864C82.3058 35.1253 82.1471 35.4847 82.1471 35.942C82.1471 36.418 82.3244 36.796 82.6791 37.076C83.0338 37.3467 83.5331 37.482 84.1771 37.482ZM93.4032 33.17L91.2052 35.424V38H90.4912V28.2H91.2052V34.5L97.3232 28.2H98.1912L93.8792 32.652L98.4852 38H97.6172L93.4032 33.17ZM103.681 30.636C104.596 30.636 105.319 30.902 105.851 31.434C106.383 31.966 106.649 32.7313 106.649 33.73V38H105.949V33.786C105.949 32.9647 105.739 32.3393 105.319 31.91C104.908 31.4807 104.33 31.266 103.583 31.266C102.724 31.266 102.048 31.5227 101.553 32.036C101.058 32.5493 100.811 33.24 100.811 34.108V38H100.111V27.612H100.811V32.218C101.063 31.714 101.436 31.3267 101.931 31.056C102.426 30.776 103.009 30.636 103.681 30.636ZM115.929 30.692V38H115.257V36.432C115.014 36.9453 114.655 37.3467 114.179 37.636C113.703 37.916 113.143 38.056 112.499 38.056C111.547 38.056 110.8 37.79 110.259 37.258C109.718 36.726 109.447 35.9607 109.447 34.962V30.692H110.147V34.906C110.147 35.7273 110.357 36.3527 110.777 36.782C111.197 37.2113 111.79 37.426 112.555 37.426C113.376 37.426 114.025 37.1693 114.501 36.656C114.986 36.1427 115.229 35.452 115.229 34.584V30.692H115.929ZM125.392 27.612V38H124.706V36.278C124.417 36.8473 124.011 37.286 123.488 37.594C122.965 37.902 122.373 38.056 121.71 38.056C121.029 38.056 120.413 37.8973 119.862 37.58C119.311 37.2627 118.877 36.824 118.56 36.264C118.252 35.704 118.098 35.0647 118.098 34.346C118.098 33.6273 118.252 32.988 118.56 32.428C118.877 31.8587 119.311 31.42 119.862 31.112C120.413 30.7947 121.029 30.636 121.71 30.636C122.363 30.636 122.947 30.79 123.46 31.098C123.983 31.406 124.393 31.8353 124.692 32.386V27.612H125.392ZM121.752 37.426C122.312 37.426 122.811 37.2953 123.25 37.034C123.698 36.7727 124.048 36.4087 124.3 35.942C124.561 35.4753 124.692 34.9433 124.692 34.346C124.692 33.7487 124.561 33.2167 124.3 32.75C124.048 32.2833 123.698 31.9193 123.25 31.658C122.811 31.3967 122.312 31.266 121.752 31.266C121.192 31.266 120.688 31.3967 120.24 31.658C119.801 31.9193 119.451 32.2833 119.19 32.75C118.938 33.2167 118.812 33.7487 118.812 34.346C118.812 34.9433 118.938 35.4753 119.19 35.942C119.451 36.4087 119.801 36.7727 120.24 37.034C120.688 37.2953 121.192 37.426 121.752 37.426ZM133.285 37.398V38H127.475V37.524L132.291 31.294H127.545V30.692H133.201V31.168L128.371 37.398H133.285ZM135.384 30.692H136.084V38H135.384V30.692ZM135.734 28.914C135.576 28.914 135.44 28.8627 135.328 28.76C135.216 28.648 135.16 28.5127 135.16 28.354C135.16 28.1953 135.216 28.06 135.328 27.948C135.44 27.836 135.576 27.78 135.734 27.78C135.893 27.78 136.028 27.836 136.14 27.948C136.252 28.0507 136.308 28.1813 136.308 28.34C136.308 28.4987 136.252 28.634 136.14 28.746C136.028 28.858 135.893 28.914 135.734 28.914ZM141.499 30.636C142.404 30.636 143.099 30.8693 143.585 31.336C144.07 31.7933 144.313 32.47 144.313 33.366V38H143.641V36.698C143.407 37.1273 143.067 37.4633 142.619 37.706C142.171 37.9393 141.634 38.056 141.009 38.056C140.197 38.056 139.553 37.8647 139.077 37.482C138.61 37.0993 138.377 36.5953 138.377 35.97C138.377 35.3633 138.591 34.8733 139.021 34.5C139.459 34.1173 140.155 33.926 141.107 33.926H143.613V33.338C143.613 32.6567 143.426 32.1387 143.053 31.784C142.689 31.4293 142.152 31.252 141.443 31.252C140.957 31.252 140.491 31.336 140.043 31.504C139.604 31.672 139.231 31.896 138.923 32.176L138.573 31.672C138.937 31.3453 139.375 31.0933 139.889 30.916C140.402 30.7293 140.939 30.636 141.499 30.636ZM141.107 37.482C141.713 37.482 142.227 37.342 142.647 37.062C143.076 36.782 143.398 36.376 143.613 35.844V34.472H141.121C140.402 34.472 139.879 34.6027 139.553 34.864C139.235 35.1253 139.077 35.4847 139.077 35.942C139.077 36.418 139.254 36.796 139.609 37.076C139.963 37.3467 140.463 37.482 141.107 37.482ZM149.801 34.094L147.897 35.83V38H147.197V27.612H147.897V34.962L152.573 30.692H153.469L150.319 33.646L153.777 38H152.909L149.801 34.094ZM157.983 38.056C157.292 38.056 156.667 37.8973 156.107 37.58C155.556 37.2627 155.122 36.824 154.805 36.264C154.487 35.6947 154.329 35.0553 154.329 34.346C154.329 33.6367 154.487 33.002 154.805 32.442C155.122 31.8727 155.556 31.4293 156.107 31.112C156.667 30.7947 157.292 30.636 157.983 30.636C158.673 30.636 159.294 30.7947 159.845 31.112C160.405 31.4293 160.843 31.8727 161.161 32.442C161.478 33.002 161.637 33.6367 161.637 34.346C161.637 35.0553 161.478 35.6947 161.161 36.264C160.843 36.824 160.405 37.2627 159.845 37.58C159.294 37.8973 158.673 38.056 157.983 38.056ZM157.983 37.426C158.543 37.426 159.042 37.2953 159.481 37.034C159.929 36.7727 160.279 36.4087 160.531 35.942C160.792 35.4753 160.923 34.9433 160.923 34.346C160.923 33.7487 160.792 33.2167 160.531 32.75C160.279 32.2833 159.929 31.9193 159.481 31.658C159.042 31.3967 158.543 31.266 157.983 31.266C157.423 31.266 156.919 31.3967 156.471 31.658C156.032 31.9193 155.682 32.2833 155.421 32.75C155.169 33.2167 155.043 33.7487 155.043 34.346C155.043 34.9433 155.169 35.4753 155.421 35.942C155.682 36.4087 156.032 36.7727 156.471 37.034C156.919 37.2953 157.423 37.426 157.983 37.426ZM169.469 30.692L166.165 38H165.451L162.161 30.692H162.903L165.815 37.23L168.755 30.692H169.469ZM173.245 30.636C174.15 30.636 174.846 30.8693 175.331 31.336C175.816 31.7933 176.059 32.47 176.059 33.366V38H175.387V36.698C175.154 37.1273 174.813 37.4633 174.365 37.706C173.917 37.9393 173.38 38.056 172.755 38.056C171.943 38.056 171.299 37.8647 170.823 37.482C170.356 37.0993 170.123 36.5953 170.123 35.97C170.123 35.3633 170.338 34.8733 170.767 34.5C171.206 34.1173 171.901 33.926 172.853 33.926H175.359V33.338C175.359 32.6567 175.172 32.1387 174.799 31.784C174.435 31.4293 173.898 31.252 173.189 31.252C172.704 31.252 172.237 31.336 171.789 31.504C171.35 31.672 170.977 31.896 170.669 32.176L170.319 31.672C170.683 31.3453 171.122 31.0933 171.635 30.916C172.148 30.7293 172.685 30.636 173.245 30.636ZM172.853 37.482C173.46 37.482 173.973 37.342 174.393 37.062C174.822 36.782 175.144 36.376 175.359 35.844V34.472H172.867C172.148 34.472 171.626 34.6027 171.299 34.864C170.982 35.1253 170.823 35.4847 170.823 35.942C170.823 36.418 171 36.796 171.355 37.076C171.71 37.3467 172.209 37.482 172.853 37.482Z" fill="white"/>
<path fill-rule="evenodd" clip-rule="evenodd" d="M24.86 5.488C24.7715 5.33877 24.6456 5.21516 24.4948 5.1293C24.344 5.04344 24.1735 4.99829 24 4.99829C23.8265 4.99829 23.656 5.04344 23.5052 5.1293C23.3544 5.21516 23.2285 5.33877 23.14 5.488C21.149 8.834 20 12.78 20 17C20 17.407 20.01 17.812 20.032 18.213C17.2632 14.9784 13.4966 12.7573 9.32601 11.9C9.16333 11.8659 8.99472 11.8728 8.83541 11.9203C8.67611 11.9677 8.53113 12.0541 8.4136 12.1716C8.29607 12.2891 8.20969 12.4341 8.16227 12.5934C8.11485 12.7527 8.10788 12.9213 8.14201 13.084C9.14163 17.9462 11.9878 22.2313 16.082 25.038C15.7219 25.013 15.361 25.0003 15 25C11.469 25 8.18101 26.176 5.41201 28.191C5.28434 28.2838 5.18044 28.4054 5.1088 28.546C5.03716 28.6866 4.99982 28.8422 4.99982 29C4.99982 29.1578 5.03716 29.3134 5.1088 29.454C5.18044 29.5946 5.28434 29.7162 5.41201 29.809C8.18201 31.824 11.469 33 15 33C16.0546 33.0001 17.1066 32.8943 18.14 32.684L18.134 32.696C16.919 34.801 16.49 37.162 16.738 39.497C16.7546 39.6538 16.808 39.8044 16.8938 39.9366C16.9797 40.0688 17.0956 40.1789 17.2321 40.2578C17.3686 40.3366 17.5219 40.3821 17.6793 40.3905C17.8367 40.3989 17.9939 40.3699 18.138 40.306C20.098 39.436 21.795 38.066 23 36.232V41H25V36.232C26.205 38.066 27.902 39.435 29.862 40.306C30.0061 40.3699 30.1633 40.3989 30.3207 40.3905C30.4782 40.3821 30.6314 40.3366 30.7679 40.2578C30.9044 40.1789 31.0203 40.0688 31.1062 39.9366C31.192 39.8044 31.2454 39.6538 31.262 39.497C31.51 37.162 31.082 34.801 29.866 32.696L29.859 32.684C30.8928 32.8943 31.9451 33.0002 33 33C36.532 33 39.819 31.824 42.588 29.809C42.7157 29.7162 42.8196 29.5946 42.8912 29.454C42.9629 29.3134 43.0002 29.1578 43.0002 29C43.0002 28.8422 42.9629 28.6866 42.8912 28.546C42.8196 28.4054 42.7157 28.2838 42.588 28.191C39.818 26.176 36.532 25 33 25C32.636 25 32.276 25.012 31.917 25.037C36.0112 22.2303 38.8574 17.9452 39.857 13.083C39.8908 12.9206 39.8837 12.7523 39.8363 12.5934C39.7889 12.4344 39.7027 12.2897 39.5854 12.1724C39.4682 12.055 39.3236 11.9687 39.1646 11.9211C39.0057 11.8736 38.8374 11.8663 38.675 11.9C34.5041 12.7571 30.7371 14.9782 27.968 18.213C27.989 17.812 28 17.407 28 17C28 12.78 26.852 8.834 24.86 5.488ZM24 25.791C24.3281 24.5504 24.7787 23.3455 25.345 22.194C25.7815 20.4972 26.0016 18.752 26 17C26 13.804 25.28 10.787 24 8.116C22.72 10.787 22 13.804 22 17C22 18.798 22.228 20.539 22.655 22.194C23.2213 23.3452 23.6718 24.5498 24 25.79V25.791ZM33.222 21.364C31.2922 23.2956 28.928 24.7371 26.327 25.568C26.6828 24.6991 26.9834 23.8087 27.227 22.902C28.027 21.322 29.082 19.847 30.393 18.535C32.3736 16.553 34.8106 15.0878 37.49 14.268C36.6698 16.9471 35.2042 19.3838 33.222 21.364ZM20.774 22.902C21.019 23.817 21.32 24.707 21.673 25.568C19.072 24.7371 16.7078 23.2956 14.778 21.364C12.7958 19.3838 11.3302 16.9471 10.51 14.268C13.1894 15.0878 15.6264 16.553 17.607 18.535C18.8874 19.8137 19.9564 21.2877 20.774 22.902ZM22.759 30.974C22.3762 31.1859 21.9852 31.3827 21.587 31.564C20.9065 32.181 20.3262 32.9003 19.867 33.696C19.1552 34.9323 18.7493 36.3209 18.683 37.746C19.8838 36.9761 20.8833 35.9304 21.598 34.696C22.2547 33.5561 22.6512 32.2851 22.759 30.974ZM15 27C17.464 27 19.804 27.656 21.901 28.837C21.408 29.142 20.938 29.483 20.497 29.859C18.7618 30.6108 16.891 30.9991 15 31C12.424 31 9.98501 30.284 7.81701 29C9.98501 27.716 12.424 27 15 27ZM27.503 29.859C27.062 29.4827 26.5926 29.141 26.099 28.837C28.196 27.656 30.536 27 33 27C35.576 27 38.015 27.716 40.183 29C38.015 30.284 35.576 31 33 31C31.109 30.9992 29.2381 30.6109 27.503 29.859ZM25.241 30.974C25.3485 32.285 25.7446 33.556 26.401 34.696C27.116 35.9305 28.1158 36.9763 29.317 37.746C29.2511 36.321 28.8455 34.9324 28.134 33.696C27.6749 32.9003 27.0946 32.181 26.414 31.564C26.0155 31.3827 25.6241 31.1859 25.241 30.974Z" fill="white"/>
</svg>
